# xmcd
#
# Track frame offsets: 
#        150
#        21356
#        47117
#        69614
#        93281
#        115980
#        141933
#        162878
#        185256
#        212840
#        237173
#        260610
#        279486
#        310639
#
# Disc length: 4386 seconds
#
# Revision: 1
# Processed by: cddbd v1.5.1PL2 Copyright (c) Steve Scherf et al.
# Submitted via: ExactAudioCopy v0.90a11
#
DISCID=c711200e
DTITLE=Johnny 'Guitar' Watson - Superman Lover - The Ultimate Collecti
DTITLE=on [DISC 1]
DYEAR=2004
DGENRE=Blues
TTITLE0=I Need It
TTITLE1=Superman Lover
TTITLE2=Ain't That A Bitch
TTITLE3=Won't You Forgive Me Baby
TTITLE4=A Real Mother For Ya
TTITLE5=Nothing Left To Be Desired
TTITLE6=Your Love Is My Love
TTITLE7=Tarzan
TTITLE8=I Wanna Thank You
TTITLE9=Lover Jones
TTITLE10=Funk Beyond The Call Of Duty
TTITLE11=It's About The Dollar Bill
TTITLE12=Give Me My Love
TTITLE13=I'm Gonna Get You Baby
EXTD=
EXTT0=
EXTT1=
EXTT2=
EXTT3=
EXTT4=
EXTT5=
EXTT6=
EXTT7=
EXTT8=
EXTT9=
EXTT10=
EXTT11=
EXTT12=
EXTT13=
PLAYORDER=
